<svg width="895" height="107" viewBox="0 0 895 107" fill="none" xmlns="http://www.w3.org/2000/svg">
<rect width="112.153" height="106.982" rx="25" fill="#18181B"/>
<path d="M97.0689 53.6014C96.2266 54.0111 95.3844 54.6257 94.5001 54.8305C90.3311 55.7729 86.0778 56.4694 81.9509 57.4937C71.381 60.0748 64.8116 66.5892 62.1586 76.832C61.1901 80.5194 60.5584 84.2478 59.6741 87.9352C59.3793 89.1643 59.8425 91.1719 57.6527 91.09C55.6735 91.049 56.0946 89.2053 55.7998 87.9762C54.5786 83.1416 53.6522 78.225 52.094 73.4724C49.6095 65.8518 44.2192 60.7304 36.3865 58.395C31.4174 56.9201 26.2798 56.0187 21.2265 54.8715C20.0474 54.6257 18.405 54.6257 18.6998 52.9868C18.8262 52.2903 20.2158 51.5528 21.1423 51.307C25.6061 50.2418 30.112 49.4633 34.5337 48.3161C44.3035 45.694 50.4517 39.4254 53.0205 29.9201C54.1575 25.741 54.9576 21.48 55.8841 17.26C56.1367 16.1538 56.2209 14.7198 57.7791 15.0476C58.495 15.2115 59.253 16.3996 59.4635 17.219C60.6005 21.6849 61.4006 26.2737 62.664 30.6985C65.3591 40.2448 71.9706 46.0627 81.6983 48.562C85.9936 49.6682 90.3732 50.3647 94.7106 51.348C95.595 51.5528 96.353 52.2084 97.1531 52.6591C97.1531 52.9459 97.1531 53.2736 97.111 53.5604L97.0689 53.6014Z" fill="white"/>
<path d="M15 79.399C18.3078 78.0863 22.3688 78.3104 24.4648 75.3647C26.3316 72.7393 27.2486 69.4094 28.6896 66.1436C29.7704 69.4414 29.5084 73.4437 32.5214 75.4608C35.2397 77.3178 38.6129 78.2143 41.9862 79.6551C38.6457 80.6477 34.5519 80.4236 32.4886 83.3372C30.5891 85.9627 29.6721 89.2926 28.4604 91.9821C27.2813 89.3246 26.3316 85.9947 24.4321 83.3372C22.3688 80.4556 18.275 80.6797 15.0328 79.399H15Z" fill="white"/>
<path d="M82.992 20.0028C83.9757 22.0922 84.5221 24.9128 86.2709 26.5843C88.0196 28.2558 90.9706 28.7433 94.0309 30.0318C87.2181 30.3452 83.5749 33.4792 83.4656 40.3045C82.0448 37.2749 81.4618 34.4194 79.6767 32.748C77.9279 31.0765 74.9769 30.5541 72.8275 29.6487C74.9769 28.7433 77.9279 28.221 79.6767 26.5843C81.4254 24.9128 82.0083 22.0922 82.992 20.0028Z" fill="white"/>
<path d="M868.267 97.8396C862.571 97.8396 857.636 96.957 853.464 95.1919C849.372 93.3466 846.123 90.8593 843.716 87.7302C841.389 84.6012 840.065 81.0709 839.745 77.1395H857.677C857.998 78.5034 858.559 79.7471 859.362 80.8703C860.244 81.9133 861.407 82.7558 862.852 83.3977C864.376 83.9593 866.061 84.2401 867.906 84.2401C869.912 84.2401 871.517 83.9994 872.72 83.518C874.004 82.9564 874.967 82.2343 875.609 81.3517C876.251 80.4692 876.571 79.5465 876.571 78.5837C876.571 77.0593 876.09 75.8959 875.127 75.0935C874.245 74.2912 872.921 73.6493 871.156 73.168C869.391 72.6063 867.264 72.0848 864.777 71.6034C861.889 70.9615 859 70.2394 856.112 69.4371C853.304 68.5545 850.777 67.4714 848.53 66.1877C846.364 64.9039 844.599 63.2592 843.235 61.2533C841.951 59.1673 841.309 56.6399 841.309 53.6713C841.309 50.0608 842.312 46.8114 844.318 43.923C846.324 40.9544 849.212 38.6276 852.983 36.9427C856.754 35.1776 861.327 34.295 866.703 34.295C874.325 34.295 880.302 35.9799 884.635 39.3497C888.968 42.7195 891.535 47.2527 892.337 52.9492H875.488C875.007 51.3446 874.004 50.1411 872.48 49.3387C870.955 48.4562 869.03 48.0149 866.703 48.0149C864.055 48.0149 862.049 48.4562 860.685 49.3387C859.321 50.2213 858.639 51.3847 858.639 52.8289C858.639 53.7917 859.081 54.6742 859.963 55.4766C860.926 56.1987 862.29 56.8405 864.055 57.4022C865.82 57.9638 867.987 58.5254 870.554 59.0871C875.448 60.1301 879.66 61.2533 883.191 62.4568C886.801 63.6603 889.609 65.4255 891.615 67.7522C893.621 69.9987 894.584 73.2883 894.504 77.6209C894.584 81.5523 893.541 85.0424 891.374 88.0913C889.288 91.1401 886.28 93.5471 882.348 95.3123C878.417 96.9972 873.723 97.8396 868.267 97.8396Z" fill="white"/>
<path d="M778.137 96.3954V35.7392H793.903L795.347 45.4876C797.192 42.1178 799.8 39.43 803.169 37.4241C806.539 35.3381 810.631 34.295 815.445 34.295C820.5 34.295 824.752 35.3782 828.202 37.5445C831.652 39.7108 834.26 42.8399 836.025 46.9317C837.87 50.9434 838.793 55.8777 838.793 61.7347V96.3954H820.861V63.4196C820.861 59.0068 819.898 55.5969 817.972 53.1899C816.127 50.7027 813.158 49.4591 809.067 49.4591C806.66 49.4591 804.453 50.0608 802.447 51.2643C800.522 52.3876 798.997 54.0324 797.874 56.1987C796.751 58.365 796.189 60.9725 796.189 64.0214V96.3954H778.137Z" fill="white"/>
<path d="M744.05 97.8396C738.193 97.8396 732.937 96.4756 728.284 93.7477C723.63 91.0198 719.94 87.289 717.212 82.5552C714.484 77.7412 713.12 72.2854 713.12 66.1877C713.12 59.9295 714.484 54.4335 717.212 49.6998C719.94 44.8858 723.63 41.1149 728.284 38.3869C733.018 35.659 738.273 34.295 744.05 34.295C749.987 34.295 755.282 35.659 759.936 38.3869C764.589 41.1149 768.28 44.8858 771.008 49.6998C773.736 54.4335 775.1 59.8894 775.1 66.0673C775.1 72.2453 773.736 77.7412 771.008 82.5552C768.28 87.289 764.589 91.0198 759.936 93.7477C755.282 96.4756 749.987 97.8396 744.05 97.8396ZM744.05 82.1942C746.457 82.1942 748.583 81.5924 750.428 80.3889C752.354 79.1854 753.878 77.3802 755.002 74.9732C756.125 72.5662 756.686 69.5976 756.686 66.0673C756.686 62.5371 756.125 59.5685 755.002 57.1615C753.878 54.7545 752.394 52.9492 750.549 51.7457C748.703 50.5422 746.577 49.9405 744.17 49.9405C741.763 49.9405 739.597 50.5422 737.671 51.7457C735.826 52.9492 734.341 54.7545 733.218 57.1615C732.095 59.5685 731.533 62.5371 731.533 66.0673C731.533 69.5976 732.095 72.5662 733.218 74.9732C734.341 77.3802 735.826 79.1854 737.671 80.3889C739.597 81.5924 741.723 82.1942 744.05 82.1942Z" fill="white"/>
<path d="M691.796 96.3956V35.7395H709.849V96.3956H691.796ZM700.823 28.7592C697.613 28.7592 695.006 27.8365 693 25.9911C690.994 24.1458 689.991 21.819 689.991 19.0109C689.991 16.1225 690.994 13.7556 693 11.9103C695.006 10.0649 697.613 9.14221 700.823 9.14221C704.112 9.14221 706.76 10.0649 708.766 11.9103C710.852 13.7556 711.895 16.1225 711.895 19.0109C711.895 21.819 710.852 24.1458 708.766 25.9911C706.76 27.8365 704.112 28.7592 700.823 28.7592Z" fill="white"/>
<path d="M677.196 96.3956C672.784 96.3956 668.892 95.7136 665.523 94.3496C662.153 92.9055 659.545 90.5787 657.7 87.3694C655.854 84.16 654.932 79.7873 654.932 74.2513V50.7831H644.582V35.7394H654.932L656.857 18.6498H672.984V35.7394H688.509V50.7831H672.984V74.492C672.984 76.899 673.506 78.624 674.549 79.667C675.672 80.6298 677.558 81.1112 680.205 81.1112H688.509V96.3956H677.196Z" fill="white"/>
<path d="M608.75 97.8396C603.696 97.8396 599.483 97.0373 596.114 95.4326C592.824 93.828 590.377 91.6617 588.772 88.9337C587.248 86.1256 586.486 83.0366 586.486 79.6668C586.486 76.0563 587.368 72.8871 589.133 70.1592C590.979 67.3511 593.827 65.1446 597.678 63.54C601.529 61.8551 606.384 61.0126 612.241 61.0126H626.923C626.923 58.2847 626.562 56.0382 625.84 54.2731C625.198 52.5079 624.115 51.1841 622.591 50.3015C621.066 49.419 618.98 48.9777 616.332 48.9777C613.524 48.9777 611.157 49.5393 609.232 50.6626C607.306 51.7858 606.103 53.551 605.621 55.958H588.291C588.692 51.6254 590.096 47.8544 592.503 44.6451C594.99 41.4358 598.28 38.9084 602.372 37.0631C606.464 35.2177 611.157 34.295 616.453 34.295C622.23 34.295 627.244 35.2578 631.496 37.1834C635.749 39.0288 639.038 41.7567 641.365 45.3672C643.772 48.9777 644.976 53.4707 644.976 58.8464V96.3954H629.932L627.766 87.6099C626.883 89.1343 625.84 90.5384 624.637 91.8221C623.433 93.0256 622.029 94.1088 620.424 95.0716C618.82 95.9541 617.055 96.6361 615.129 97.1175C613.203 97.5989 611.077 97.8396 608.75 97.8396ZM613.203 84.1198C615.129 84.1198 616.814 83.7988 618.258 83.157C619.702 82.5151 620.946 81.6325 621.989 80.5093C623.032 79.386 623.874 78.1023 624.516 76.6581C625.238 75.1337 625.76 73.4889 626.081 71.7238V71.6034H614.407C612.401 71.6034 610.716 71.8842 609.352 72.4458C608.068 72.9272 607.106 73.6493 606.464 74.6121C605.822 75.5749 605.501 76.6982 605.501 77.9819C605.501 79.3459 605.822 80.5093 606.464 81.4721C607.186 82.3546 608.109 83.0366 609.232 83.518C610.435 83.9192 611.759 84.1198 613.203 84.1198Z" fill="white"/>
<path d="M548.344 96.3954V35.7392H564.351L566.036 46.8114C567.64 44.2439 569.526 42.0375 571.692 40.1922C573.858 38.3468 576.346 36.9026 579.154 35.8596C582.042 34.8166 585.131 34.295 588.421 34.295V53.4306H582.403C579.996 53.4306 577.79 53.7114 575.784 54.2731C573.858 54.7545 572.174 55.5969 570.729 56.8004C569.365 58.0039 568.282 59.6487 567.48 61.7347C566.758 63.7406 566.397 66.2679 566.397 69.3168V96.3954H548.344Z" fill="white"/>
<path d="M533.985 96.3956C529.573 96.3956 525.681 95.7136 522.311 94.3496C518.942 92.9055 516.334 90.5787 514.489 87.3694C512.643 84.16 511.721 79.7873 511.721 74.2513V50.7831H501.371V35.7394H511.721L513.646 18.6498H529.773V35.7394H545.298V50.7831H529.773V74.492C529.773 76.899 530.295 78.624 531.338 79.667C532.461 80.6298 534.346 81.1112 536.994 81.1112H545.298V96.3956H533.985Z" fill="white"/>
<path d="M478.339 97.8396C472.643 97.8396 467.709 96.957 463.536 95.1919C459.445 93.3466 456.195 90.8593 453.788 87.7302C451.461 84.6012 450.138 81.0709 449.817 77.1395H467.749C468.07 78.5034 468.631 79.7471 469.434 80.8703C470.316 81.9133 471.48 82.7558 472.924 83.3977C474.448 83.9593 476.133 84.2401 477.978 84.2401C479.984 84.2401 481.589 83.9994 482.792 83.518C484.076 82.9564 485.039 82.2343 485.681 81.3517C486.323 80.4692 486.644 79.5465 486.644 78.5837C486.644 77.0593 486.162 75.8959 485.199 75.0935C484.317 74.2912 482.993 73.6493 481.228 73.168C479.463 72.6063 477.337 72.0848 474.849 71.6034C471.961 70.9615 469.073 70.2394 466.184 69.4371C463.376 68.5545 460.849 67.4714 458.602 66.1877C456.436 64.9039 454.671 63.2592 453.307 61.2533C452.023 59.1673 451.381 56.6399 451.381 53.6713C451.381 50.0608 452.384 46.8114 454.39 43.923C456.396 40.9544 459.284 38.6276 463.055 36.9427C466.826 35.1776 471.399 34.295 476.775 34.295C484.397 34.295 490.374 35.9799 494.707 39.3497C499.04 42.7195 501.607 47.2527 502.409 52.9492H485.56C485.079 51.3446 484.076 50.1411 482.552 49.3387C481.027 48.4562 479.102 48.0149 476.775 48.0149C474.127 48.0149 472.121 48.4562 470.757 49.3387C469.393 50.2213 468.711 51.3847 468.711 52.8289C468.711 53.7917 469.153 54.6742 470.035 55.4766C470.998 56.1987 472.362 56.8405 474.127 57.4022C475.892 57.9638 478.059 58.5254 480.626 59.0871C485.52 60.1301 489.733 61.2533 493.263 62.4568C496.873 63.6603 499.681 65.4255 501.687 67.7522C503.693 69.9987 504.656 73.2883 504.576 77.6209C504.656 81.5523 503.613 85.0424 501.447 88.0913C499.361 91.1401 496.352 93.5471 492.42 95.3123C488.489 96.9972 483.795 97.8396 478.339 97.8396Z" fill="white"/>
<path d="M411.075 97.8396C406.021 97.8396 401.728 96.7966 398.198 94.7105C394.748 92.6245 392.1 89.5756 390.255 85.564C388.49 81.4721 387.607 76.4976 387.607 70.6406V35.7393H405.66V68.8354C405.66 73.3284 406.582 76.7784 408.428 79.1854C410.273 81.5122 413.242 82.6756 417.333 82.6756C419.821 82.6756 422.027 82.1139 423.953 80.9907C425.959 79.8674 427.483 78.2226 428.526 76.0564C429.649 73.8901 430.211 71.2424 430.211 68.1133V35.7393H448.263V96.3954H432.498L431.053 86.7675C429.288 90.057 426.721 92.7448 423.351 94.8309C419.981 96.8367 415.889 97.8396 411.075 97.8396Z" fill="white"/>
<path d="M365.31 96.3955V9.74377H383.362V96.3955H365.31Z" fill="white"/>
<path d="M342.41 96.3955V9.74377H360.463V96.3955H342.41Z" fill="white"/>
<path d="M309.398 97.8396C303.14 97.8396 297.644 96.5559 292.91 93.9884C288.176 91.3407 284.445 87.6901 281.718 83.0366C279.07 78.3029 277.746 72.8871 277.746 66.7894C277.746 60.5312 279.07 54.9551 281.718 50.0608C284.365 45.1666 288.056 41.3154 292.79 38.5073C297.523 35.6991 303.019 34.295 309.278 34.295C315.375 34.295 320.711 35.6189 325.284 38.2666C329.857 40.9143 333.428 44.5248 335.995 49.098C338.643 53.5911 339.967 58.8062 339.967 64.7435C339.967 65.5458 339.927 66.4685 339.846 67.5115C339.846 68.4743 339.766 69.4772 339.606 70.5203H290.623V60.0498H321.553C321.393 56.6801 320.149 53.9923 317.822 51.9864C315.576 49.9004 312.768 48.8573 309.398 48.8573C306.831 48.8573 304.504 49.4591 302.418 50.6626C300.332 51.8661 298.647 53.6713 297.363 56.0783C296.16 58.4853 295.558 61.5342 295.558 65.2249V68.8354C295.558 71.6435 296.079 74.1307 297.122 76.297C298.246 78.4633 299.81 80.1482 301.816 81.3517C303.902 82.5552 306.349 83.157 309.157 83.157C311.805 83.157 313.971 82.6354 315.656 81.5924C317.421 80.4692 318.785 79.0651 319.748 77.3802H338.162C337.038 81.2314 335.113 84.7215 332.385 87.8506C329.657 90.8994 326.327 93.3466 322.396 95.1919C318.464 96.957 314.132 97.8396 309.398 97.8396Z" fill="white"/>
<path d="M246.539 97.8396C240.281 97.8396 234.785 96.5559 230.051 93.9884C225.317 91.3407 221.586 87.6901 218.858 83.0366C216.211 78.3029 214.887 72.8871 214.887 66.7894C214.887 60.5312 216.211 54.9551 218.858 50.0608C221.506 45.1666 225.197 41.3154 229.931 38.5073C234.664 35.6991 240.16 34.295 246.418 34.295C252.516 34.295 257.852 35.6189 262.425 38.2666C266.998 40.9143 270.569 44.5248 273.136 49.098C275.784 53.5911 277.108 58.8062 277.108 64.7435C277.108 65.5458 277.067 66.4685 276.987 67.5115C276.987 68.4743 276.907 69.4772 276.747 70.5203H227.764V60.0498H258.694C258.534 56.6801 257.29 53.9923 254.963 51.9864C252.717 49.9004 249.909 48.8573 246.539 48.8573C243.971 48.8573 241.645 49.4591 239.559 50.6626C237.472 51.8661 235.788 53.6713 234.504 56.0783C233.3 58.4853 232.699 61.5342 232.699 65.2249V68.8354C232.699 71.6435 233.22 74.1307 234.263 76.297C235.386 78.4633 236.951 80.1482 238.957 81.3517C241.043 82.5552 243.49 83.157 246.298 83.157C248.946 83.157 251.112 82.6354 252.797 81.5924C254.562 80.4692 255.926 79.0651 256.889 77.3802H275.302C274.179 81.2314 272.253 84.7215 269.526 87.8506C266.798 90.8994 263.468 93.3466 259.537 95.1919C255.605 96.957 251.273 97.8396 246.539 97.8396Z" fill="white"/>
<path d="M177.456 96.3954V35.7392H193.463L195.148 46.8114C196.752 44.2439 198.638 42.0375 200.804 40.1922C202.97 38.3468 205.458 36.9026 208.266 35.8596C211.154 34.8166 214.243 34.295 217.533 34.295V53.4306H211.515C209.108 53.4306 206.902 53.7114 204.896 54.2731C202.97 54.7545 201.285 55.5969 199.841 56.8004C198.477 58.0039 197.394 59.6487 196.592 61.7347C195.87 63.7406 195.509 66.2679 195.509 69.3168V96.3954H177.456Z" fill="white"/>
<path d="M145.096 96.3955V31.4067C145.096 26.1113 146.019 21.8991 147.864 18.77C149.71 15.5607 152.277 13.274 155.567 11.9101C158.936 10.4659 162.788 9.74377 167.12 9.74377H174.823V25.0282H170.009C167.521 25.0282 165.756 25.5096 164.713 26.4724C163.67 27.4352 163.149 29.0799 163.149 31.4067V96.3955H145.096ZM137.153 50.783V35.7393H175.665V50.783H137.153Z" fill="white"/>
</svg>
