<svg width="35" height="41" viewBox="0 0 35 41" fill="none" xmlns="http://www.w3.org/2000/svg">
<g clip-path="url(#clip0_192_5797)">
<path d="M33.9145 19.1339C33.6043 19.2884 33.2942 19.5203 32.9685 19.5975C31.4333 19.953 29.8671 20.2157 28.3474 20.6021C24.455 21.5758 22.0359 24.0332 21.0589 27.8971C20.7023 29.2881 20.4697 30.6945 20.144 32.0855C20.0354 32.5492 20.206 33.3065 19.3996 33.2756C18.6708 33.2602 18.8259 32.5647 18.7173 32.101C18.2676 30.2773 17.9265 28.4226 17.3527 26.6298C16.4377 23.755 14.4528 21.8231 11.5685 20.9422C9.73859 20.3858 7.8467 20.0457 5.98582 19.613C5.55162 19.5202 4.94683 19.5202 5.05538 18.902C5.10191 18.6393 5.61365 18.3611 5.95481 18.2684C7.59858 17.8665 9.25787 17.5729 10.8861 17.1401C14.4838 16.151 16.7479 13.7863 17.6938 10.2006C18.1125 8.62415 18.4072 7.01678 18.7483 5.42487C18.8414 5.00757 18.8724 4.46663 19.4462 4.59027C19.7098 4.65209 19.9889 5.1003 20.0665 5.40941C20.4852 7.09406 20.7798 8.82507 21.245 10.4943C22.2375 14.0954 24.6721 16.2901 28.2543 17.2328C29.8361 17.6501 31.4488 17.9129 33.0461 18.2838C33.3717 18.3611 33.6509 18.6084 33.9455 18.7784C33.9455 18.8866 33.9455 19.0102 33.93 19.1184L33.9145 19.1339Z" fill="black"/>
<path d="M0 6.39856C1.56624 5.76489 3.48914 5.87308 4.48161 4.45117C5.36553 3.18383 5.79973 1.57646 6.48206 0C6.9938 1.59191 6.86974 3.52385 8.29641 4.49754C9.58352 5.39396 11.1808 5.82671 12.778 6.5222C11.1963 7.00132 9.25786 6.89314 8.2809 8.29958C7.38148 9.56693 6.94727 11.1743 6.3735 12.4726C5.81524 11.1898 5.36553 9.58239 4.46611 8.29958C3.48914 6.90859 1.55073 7.01678 0.0155073 6.39856H0Z" fill="black"/>
<path d="M30.3013 31.8228C30.72 32.7501 30.9526 34.002 31.6969 34.7439C32.4413 35.4857 33.6974 35.7021 35 36.274C32.1001 36.4131 30.5494 37.8041 30.5029 40.8333C29.8981 39.4887 29.65 38.2214 28.8901 37.4795C28.1458 36.7376 26.8897 36.5058 25.9747 36.104C26.8897 35.7021 28.1458 35.4703 28.8901 34.7439C29.6345 34.002 29.8826 32.7501 30.3013 31.8228Z" fill="black"/>
</g>
<defs>
<clipPath id="clip0_192_5797">
<rect width="35" height="40.8333" fill="white"/>
</clipPath>
</defs>
</svg>
